<svg xmlns="http://www.w3.org/2000/svg" xmlns:xlink="http://www.w3.org/1999/xlink" width="129.778" height="142" viewBox="0 0 129.778 142">
  <defs>
    <clipPath id="clip-path">
      <path id="Path_24" data-name="Path 24" d="M60.109,23H189.887V165H60.109Zm0,0"/>
    </clipPath>
    <clipPath id="clip-path-2">
      <path id="Path_26" data-name="Path 26" d="M100.828,57.4h48.344v73.2H100.828Zm0,0"/>
    </clipPath>
  </defs>
  <g id="surface1" transform="translate(-60.109 -23)">
    <g id="Group_13" data-name="Group 13" clip-path="url(#clip-path)">
      <path id="Path_23" data-name="Path 23" d="M180.762,61.73c-5.039-8.746-45.7-32.27-55.762-32.27S74.293,52.984,69.238,61.73c-4.7,8.141-4.7,56.41,0,64.555,5.055,8.731,45.7,32.254,55.762,32.254s50.719-23.523,55.762-32.269C185.461,118.129,185.461,69.871,180.762,61.73Zm4.859-2.82C179.758,48.746,137.172,23.82,125,23.82S70.242,48.746,64.379,58.91c-5.691,9.84-5.691,60.34,0,70.18,5.863,10.164,48.449,35.09,60.621,35.09s54.758-24.926,60.621-35.075C191.313,119.25,191.313,68.75,185.621,58.91Zm-3.476,68.172c-5.172,8.969-46.829,33.066-57.145,33.066s-51.973-24.113-57.145-33.082c-4.82-8.347-4.82-57.816,0-66.164C73.027,51.949,114.684,27.852,125,27.852s51.973,24.113,57.145,33.066C186.965,69.266,186.965,118.734,182.145,127.082Zm0,0" fill="#8b5cf6"/>
    </g>
    <g id="Group_14" data-name="Group 14" clip-path="url(#clip-path-2)">
      <path id="Path_25" data-name="Path 25" d="M100.84,124.75v-8.664h15.09V66.066H101.371V57.4h41.8v8.664H128.191v50.02h14.45v8.664Zm31.219-11.9v-43h14.957V60.129h2.144V71.914H134.223v40.938ZM104.617,71.914V69.852h9.059v2.063Zm-.551,56.621h42.465v-9.414h2.145V130.6h-44.61Zm0,0" fill="#fff"/>
    </g>
  </g>
</svg>
